# xmcd CD database file
#
# Track frame offsets:
#	150
#	21000
#	43000
#	65200
#	84975
#	106500
#	127200
#	151887
#	171484
#	191087
#
# Disc length: 2835 seconds
#
# Revision: 0
# Processed by: cddbd v1.5PL3 Copyright (c) Steve Scherf et al.
# Submitted via: CDex 1.51
#
DISCID=840b110a
DTITLE=REDIEAN;MODE - NUTS
DYEAR=1996
DGENRE=Rock
TTITLE0=ゼロ
TTITLE1=ジャーニー-時の彼方へ
TTITLE2=ラン
TTITLE3=キラキラ キセキ(アルバム・ヴァージョン)
TTITLE4=ティーン
TTITLE5=ダン-ガン
TTITLE6=クラクラしちゃう
TTITLE7=成り上がれ!キック&ゴー!!
TTITLE8=翼(アルバム・ヴァージョン)
TTITLE9=ポケットの中の夢
EXTD=YEAR: 1996
EXTT0=
EXTT1=
EXTT2=
EXTT3=
EXTT4=
EXTT5=
EXTT6=
EXTT7=
EXTT8=
EXTT9=
PLAYORDER=
